<svg xmlns="http://www.w3.org/2000/svg" viewBox="0 0 210 50">
<defs>
<style>
.cls-1{fill:#ff0;}
.cls-1,.cls-2{opacity:0.85;}
.cls-2{fill:aqua;}
g{
    transform-box: fill-box;
}
#yellow{
    transform: scaleX(0);
    animation: wipe 6s ease-in infinite;
}
#cyan{   
    transform: scaleX(0);
    animation: wipe 6s 3s ease-in infinite;
}

@keyframes wipe {
    0% { transform: scaleX(0); opacity: 1; }
    25% { transform: scaleX(1); opacity: 1; }
    49% { transform: scaleX(1);}
    50% { transform: scaleX(0); opacity: 0; }
}
</style>
</defs>
<title>network</title>
<g id="yellow">
<rect class="cls-1" x="3.35" y="7" width="203.29" height="36"/>
</g>
<g id="cyan">
<rect class="cls-2" x="3.35" y="7" width="203.29" height="36"/>
</g>
<g id="text">
<path d="M12.91,18.66v3.22q1.79-3.22,3.68-3.22a2,2,0,0,1,1.43.52,1.62,1.62,0,0,1,.56,1.21,1.43,1.43,0,0,1-.41,1,1.3,1.3,0,0,1-1,.42A2.05,2.05,0,0,1,16,21.3a2.09,2.09,0,0,0-1-.53.92.92,0,0,0-.61.31,7.53,7.53,0,0,0-1.45,2.11v6.86a4.18,4.18,0,0,0,.29,1.79,1.7,1.7,0,0,0,.72.71,3.29,3.29,0,0,0,1.49.28v.56H8.08v-.56a3,3,0,0,0,1.62-.35,1.3,1.3,0,0,0,.55-.79,8.27,8.27,0,0,0,.08-1.52V24.62a24.85,24.85,0,0,0-.1-3,1.21,1.21,0,0,0-.38-.7,1.09,1.09,0,0,0-.68-.22A3,3,0,0,0,8.08,21l-.16-.56,4.33-1.75Z"/>
<path d="M21.78,24.47a7.37,7.37,0,0,0,1.55,5A4.7,4.7,0,0,0,27,31.28a4,4,0,0,0,2.45-.77,5.77,5.77,0,0,0,1.74-2.65l.48.31a7.45,7.45,0,0,1-1.9,3.9,5.11,5.11,0,0,1-4,1.76,5.75,5.75,0,0,1-4.41-2,7.67,7.67,0,0,1-1.84-5.4,8.12,8.12,0,0,1,1.89-5.72,6.13,6.13,0,0,1,4.72-2.06,5.26,5.26,0,0,1,3.95,1.59,5.77,5.77,0,0,1,1.55,4.24Zm0-.91h6.63a6.52,6.52,0,0,0-.33-1.93,3,3,0,0,0-1.17-1.38,2.93,2.93,0,0,0-1.61-.5,3.22,3.22,0,0,0-2.32,1A4.34,4.34,0,0,0,21.78,23.56Z"/>
<path d="M45.73,28a7.71,7.71,0,0,1-2.26,4.35,5.45,5.45,0,0,1-3.74,1.53,5.51,5.51,0,0,1-4.25-2,8.08,8.08,0,0,1-1.81-5.53,7.6,7.6,0,0,1,2-5.48,6.4,6.4,0,0,1,4.82-2.11A5.31,5.31,0,0,1,44,19.77a3.12,3.12,0,0,1,1.36,2.32,1.27,1.27,0,0,1-.38,1,1.49,1.49,0,0,1-1.08.37,1.69,1.69,0,0,1-1.39-.59,2.6,2.6,0,0,1-.35-1.25,2,2,0,0,0-.63-1.41A2.27,2.27,0,0,0,40,19.7a3.09,3.09,0,0,0-2.51,1.16,6.12,6.12,0,0,0-1.27,4.05,8.2,8.2,0,0,0,1.26,4.52,3.86,3.86,0,0,0,3.4,2,4.1,4.1,0,0,0,2.75-1.05,7.1,7.1,0,0,0,1.67-2.61Z"/>
<path d="M54.78,18.66A6.33,6.33,0,0,1,60,21.13,7.59,7.59,0,0,1,61.67,26a9.18,9.18,0,0,1-.92,3.89,6.55,6.55,0,0,1-6.14,4,6.06,6.06,0,0,1-5.14-2.58,8,8,0,0,1-1.61-4.88,8.54,8.54,0,0,1,1-3.91,6.52,6.52,0,0,1,5.94-3.8Zm-.48,1a3.34,3.34,0,0,0-1.67.49,3.5,3.5,0,0,0-1.35,1.73,8.38,8.38,0,0,0-.51,3.17A11,11,0,0,0,52,30.45a3.71,3.71,0,0,0,3.27,2.27,3.06,3.06,0,0,0,2.5-1.25c.66-.83,1-2.27,1-4.3a9.76,9.76,0,0,0-1.65-6A3.36,3.36,0,0,0,54.3,19.67Z"/>
<path d="M68,21.69q2.52-3,4.8-3a3.48,3.48,0,0,1,2,.58,3.94,3.94,0,0,1,1.34,1.93,9,9,0,0,1,.34,2.88v6.11A5.27,5.27,0,0,0,76.67,32a1.32,1.32,0,0,0,.56.61,3,3,0,0,0,1.41.22v.56H71.56v-.56h.3a2.33,2.33,0,0,0,1.4-.31,1.58,1.58,0,0,0,.55-.9,9.32,9.32,0,0,0,.06-1.46V24.3a6,6,0,0,0-.5-2.84,1.81,1.81,0,0,0-1.71-.88,5.18,5.18,0,0,0-3.71,2v7.55A5.54,5.54,0,0,0,68.12,32a1.43,1.43,0,0,0,.61.67,3.7,3.7,0,0,0,1.55.21v.56H63.2v-.56h.32A1.67,1.67,0,0,0,65,32.27a4,4,0,0,0,.38-2.11V24.84a23.33,23.33,0,0,0-.11-3.14,1.35,1.35,0,0,0-.36-.76,1,1,0,0,0-.65-.21,3,3,0,0,0-1,.24L63,20.41l4.31-1.75H68Z"/>
<path d="M82.19,24.47a7.37,7.37,0,0,0,1.54,5,4.73,4.73,0,0,0,3.68,1.81,4,4,0,0,0,2.44-.77,5.69,5.69,0,0,0,1.74-2.65l.49.31a7.47,7.47,0,0,1-1.91,3.9,5.09,5.09,0,0,1-4,1.76,5.75,5.75,0,0,1-4.41-2A7.67,7.67,0,0,1,80,26.42a8.17,8.17,0,0,1,1.88-5.72,6.15,6.15,0,0,1,4.73-2.06,5.27,5.27,0,0,1,4,1.59,5.81,5.81,0,0,1,1.55,4.24Zm0-.91h6.62a5.91,5.91,0,0,0-.33-1.93,3,3,0,0,0-1.16-1.38,2.94,2.94,0,0,0-1.62-.5,3.24,3.24,0,0,0-2.32,1A4.34,4.34,0,0,0,82.19,23.56Z"/>
<path d="M106.14,28a7.71,7.71,0,0,1-2.26,4.35,5.45,5.45,0,0,1-3.74,1.53,5.51,5.51,0,0,1-4.25-2,8,8,0,0,1-1.81-5.53,7.6,7.6,0,0,1,2-5.48,6.39,6.39,0,0,1,4.82-2.11,5.33,5.33,0,0,1,3.47,1.11,3.11,3.11,0,0,1,1.35,2.32,1.24,1.24,0,0,1-.38,1,1.45,1.45,0,0,1-1.07.37,1.68,1.68,0,0,1-1.39-.59,2.49,2.49,0,0,1-.35-1.25,2.09,2.09,0,0,0-.63-1.41,2.28,2.28,0,0,0-1.52-.47,3.09,3.09,0,0,0-2.51,1.16,6.12,6.12,0,0,0-1.27,4.05,8.2,8.2,0,0,0,1.26,4.52,3.86,3.86,0,0,0,3.4,2A4.12,4.12,0,0,0,104,30.34a7.1,7.1,0,0,0,1.67-2.61Z"/>
<path d="M112.34,14.38v4.7h3.35v1.09h-3.35v9.28a3.18,3.18,0,0,0,.4,1.88,1.28,1.28,0,0,0,1,.48,1.77,1.77,0,0,0,1-.32,2.1,2.1,0,0,0,.75-.94h.61a5,5,0,0,1-1.55,2.3,3.32,3.32,0,0,1-2.06.77,2.83,2.83,0,0,1-1.41-.39,2.46,2.46,0,0,1-1-1.14,6.23,6.23,0,0,1-.32-2.29V20.17H107.5v-.51a6,6,0,0,0,1.76-1.17,9.05,9.05,0,0,0,1.6-1.94,18.3,18.3,0,0,0,1-2.17Z"/>
<path d="M125.19,31.33a24.34,24.34,0,0,1-2.77,2,4.21,4.21,0,0,1-1.79.39,3.22,3.22,0,0,1-2.45-1,3.74,3.74,0,0,1-1-2.67,3.41,3.41,0,0,1,.47-1.81,6.12,6.12,0,0,1,2.22-2,33.78,33.78,0,0,1,5.28-2.28v-.57a4.67,4.67,0,0,0-.68-2.93,2.46,2.46,0,0,0-2-.8,2.23,2.23,0,0,0-1.56.53,1.59,1.59,0,0,0-.59,1.22l0,.91a1.57,1.57,0,0,1-.37,1.1,1.25,1.25,0,0,1-1,.4,1.23,1.23,0,0,1-1-.41,1.61,1.61,0,0,1-.36-1.11,3.18,3.18,0,0,1,1.37-2.47A5.94,5.94,0,0,1,123,18.66a6.7,6.7,0,0,1,3.13.64,3,3,0,0,1,1.35,1.51,8.42,8.42,0,0,1,.29,2.75v4.86a23.8,23.8,0,0,0,.07,2.51,1.13,1.13,0,0,0,.26.62.64.64,0,0,0,.42.15.77.77,0,0,0,.43-.11,9.13,9.13,0,0,0,1.27-1.14v.88c-1.17,1.56-2.28,2.34-3.34,2.34a1.52,1.52,0,0,1-1.22-.53A2.81,2.81,0,0,1,125.19,31.33Zm0-1V24.86a29.2,29.2,0,0,0-3,1.33,5.23,5.23,0,0,0-1.76,1.43,2.76,2.76,0,0,0-.54,1.65,2.65,2.65,0,0,0,.68,1.86,2,2,0,0,0,1.54.74A5.68,5.68,0,0,0,125.19,30.31Z"/>
<path d="M135.45,21.69q2.52-3,4.8-3a3.48,3.48,0,0,1,2,.58,3.94,3.94,0,0,1,1.34,1.93,9,9,0,0,1,.34,2.88v6.11a5.27,5.27,0,0,0,.22,1.84,1.32,1.32,0,0,0,.56.61,3,3,0,0,0,1.41.22v.56h-7.08v-.56h.3a2.33,2.33,0,0,0,1.4-.31,1.58,1.58,0,0,0,.55-.9,8.74,8.74,0,0,0,.07-1.46V24.3a5.93,5.93,0,0,0-.51-2.84,1.81,1.81,0,0,0-1.71-.88,5.18,5.18,0,0,0-3.71,2v7.55a5.15,5.15,0,0,0,.18,1.79,1.37,1.37,0,0,0,.6.67,3.7,3.7,0,0,0,1.55.21v.56H130.7v-.56H131a1.67,1.67,0,0,0,1.47-.56,4,4,0,0,0,.39-2.11V24.84a22.58,22.58,0,0,0-.12-3.14,1.35,1.35,0,0,0-.36-.76,1,1,0,0,0-.65-.21,3,3,0,0,0-1.05.24l-.23-.56,4.31-1.75h.67Z"/>
<path d="M157.39,31.78a7.25,7.25,0,0,1-2,1.57,4.87,4.87,0,0,1-2.15.48,5.38,5.38,0,0,1-4.1-2,7.33,7.33,0,0,1-1.75-5,9.11,9.11,0,0,1,1.94-5.63,6,6,0,0,1,5-2.56,4.28,4.28,0,0,1,3.12,1.2V17.2a21,21,0,0,0-.12-3,1.32,1.32,0,0,0-.36-.77,1,1,0,0,0-.63-.2,3.23,3.23,0,0,0-1.08.25l-.2-.55,4.27-1.75h.7V27.72a21.59,21.59,0,0,0,.12,3.07,1.29,1.29,0,0,0,.37.77.87.87,0,0,0,.6.22,3.59,3.59,0,0,0,1.13-.26l.17.54-4.25,1.77h-.72Zm0-1.09V23.31a4.92,4.92,0,0,0-.56-1.93,3.27,3.27,0,0,0-1.24-1.33,3.1,3.1,0,0,0-1.51-.44,3.18,3.18,0,0,0-2.45,1.23,7,7,0,0,0-1.43,4.75,7.44,7.44,0,0,0,1.38,4.84,3.93,3.93,0,0,0,3.06,1.68A3.78,3.78,0,0,0,157.39,30.69Z"/>
<path d="M170.28,18.66a6.33,6.33,0,0,1,5.22,2.47A7.59,7.59,0,0,1,177.17,26a9.18,9.18,0,0,1-.92,3.89,6.55,6.55,0,0,1-6.14,4A6.06,6.06,0,0,1,165,31.25a8,8,0,0,1-1.61-4.88,8.54,8.54,0,0,1,1-3.91,6.52,6.52,0,0,1,5.94-3.8Zm-.48,1a3.34,3.34,0,0,0-1.67.49,3.56,3.56,0,0,0-1.35,1.73,8.38,8.38,0,0,0-.51,3.17,11,11,0,0,0,1.24,5.39,3.71,3.71,0,0,0,3.27,2.27,3.05,3.05,0,0,0,2.5-1.25c.66-.83,1-2.27,1-4.3a9.83,9.83,0,0,0-1.64-6A3.39,3.39,0,0,0,169.8,19.67Z"/>
<path d="M182.28,30.36a1.74,1.74,0,1,1,0,3.47,1.64,1.64,0,0,1-1.22-.51,1.68,1.68,0,0,1-.51-1.23,1.64,1.64,0,0,1,.51-1.23A1.67,1.67,0,0,1,182.28,30.36Z"/>
<path d="M190.28,30.36a1.74,1.74,0,1,1,0,3.47,1.64,1.64,0,0,1-1.22-.51,1.68,1.68,0,0,1-.51-1.23,1.64,1.64,0,0,1,.51-1.23A1.67,1.67,0,0,1,190.28,30.36Z"/>
<path d="M198.28,30.36a1.74,1.74,0,1,1,0,3.47,1.64,1.64,0,0,1-1.22-.51,1.68,1.68,0,0,1-.51-1.23,1.64,1.64,0,0,1,.51-1.23A1.67,1.67,0,0,1,198.28,30.36Z"/>
</g>
</svg>